mtllib materials.mtl
v 0.516 -0.07900023 -0.03133306
v 0.5159999 -0.07900023 0.09866694
v 0.516 0.05099976 0.098667
v 0.516 0.05099976 -0.03133303
v -0.614 -0.079 -0.03133366
v -0.614 0.051 -0.03133361
v -0.6140001 0.051 0.0986664
v -0.6140001 -0.079 0.09866634
v 0.516 0.2309999 -0.0313333
v 0.516 0.2309999 0.04866669
v 0.516 0.7009999 0.04866669
v 0.516 0.7009999 -0.0313333
v -0.244 0.2309999 -0.0313333
v -0.244 0.7009999 -0.0313333
v -0.244 0.7009999 0.04866669
v -0.244 0.2309999 0.04866669
v -0.244 0.05099988 -0.03133336
v -0.244 0.05099988 0.04866666
v -0.2439999 0.7009999 0.04866678
v -0.2439999 0.7009999 -0.03133324
v -0.614 0.05099988 -0.03133336
v -0.614 0.7009999 -0.03133324
v -0.614 0.7009999 0.04866678
v -0.614 0.05099988 0.04866666
v 0.516 0.051 -0.0313333
v 0.516 0.051 0.04866669
v 0.516 0.2310001 0.04866669
v 0.516 0.2310001 -0.0313333
v 0.436 0.051 -0.0313333
v 0.436 0.2310001 -0.0313333
v 0.436 0.2310001 0.04866669
v 0.436 0.051 0.04866669
v -0.614 0.051 0.1286667
v -0.614 0.051 0.04866672
v -0.614 0.7009999 0.04866672
v -0.614 0.7009999 0.1286667
v 0.5159999 0.051 0.1286668
v 0.5159999 0.7009999 0.1286668
v 0.5159999 0.7009999 0.04866681
v 0.5159999 0.051 0.04866681
v -0.6140004 -0.6190001 0.09866679
v -0.6140006 0.051 0.09866649
v -0.6140004 0.051 0.1286665
v -0.6140001 -0.6190001 0.1286667
v 0.5160003 -0.6190001 0.09866688
v 0.516 -0.6190001 0.1286668
v 0.5160003 0.051 0.1286667
v 0.5160005 0.051 0.09866658
v 0.316 0.051 -0.0313333
v 0.316 0.051 0.04866669
v 0.316 0.2310001 0.04866669
v 0.316 0.2310001 -0.0313333
v 0.276 0.051 -0.0313333
v 0.276 0.2310001 -0.0313333
v 0.276 0.2310001 0.04866669
v 0.276 0.051 0.04866669
v 0.156 0.05099976 -0.0313333
v 0.156 0.05099976 0.04866669
v 0.156 0.2309998 0.04866669
v 0.156 0.2309998 -0.0313333
v 0.116 0.05099976 -0.0313333
v 0.116 0.2309998 -0.0313333
v 0.116 0.2309998 0.04866669
v 0.116 0.05099976 0.04866669
v -0.004000008 0.05099988 -0.03133331
v -0.004000008 0.05099988 0.04866669
v -0.004000008 0.2309999 0.04866672
v -0.004000008 0.2309999 -0.03133327
v -0.04399999 0.05099988 -0.03133331
v -0.04399999 0.2309999 -0.03133327
v -0.04400001 0.2309999 0.04866672
v -0.04400001 0.05099988 0.04866666
v -0.244 0.05099988 -0.0313333
v -0.164 0.05099988 -0.03133333
v -0.164 0.2309999 -0.03133333
v -0.244 0.2309999 -0.0313333
v -0.244 0.05099988 0.04866672
v -0.244 0.2309999 0.04866672
v -0.164 0.2309999 0.04866669
v -0.164 0.05099988 0.04866669
v 0.516 -0.619 -0.1913333
v 0.516 -0.619 0.09866664
v 0.516 -0.07900012 0.09866673
v 0.516 -0.07900012 -0.1913332
v 0.436 -0.619 -0.1913333
v 0.436 -0.07900012 -0.1913332
v 0.436 -0.07900012 0.09866673
v 0.436 -0.619 0.09866664
v 0.516 -0.079 -0.03133327
v 0.516 0.0009999275 -0.0313333
v 0.516 0.0009999275 -0.1913333
v 0.516 -0.079 -0.1913333
v -0.614 -0.079 -0.03133346
v -0.614 -0.079 -0.1913335
v -0.614 0.0009999275 -0.1913335
v -0.614 0.0009999275 -0.03133348
v -0.534 -0.619 -0.1913333
v -0.534 -0.619 0.0986667
v -0.534 -0.079 0.0986667
v -0.534 -0.079 -0.1913333
v -0.614 -0.619 -0.1913333
v -0.614 -0.079 -0.1913333
v -0.614 -0.079 0.0986667
v -0.614 -0.619 0.0986667
v 0.436 -0.6190001 -0.1913334
v 0.436 -0.6190001 0.09866661
v 0.436 -0.5390002 0.09866664
v 0.436 -0.5390002 -0.1913334
v -0.534 -0.6190001 -0.1913334
v -0.534 -0.5390002 -0.1913334
v -0.534 -0.5390002 0.09866664
v -0.534 -0.6190001 0.09866661
v -0.004000008 -0.5390002 0.09866673
v -0.004000008 -0.079 0.09866664
v -0.003999963 -0.079 -0.1913334
v -0.003999963 -0.5390002 -0.1913334
v -0.08400001 -0.5390002 0.0986667
v -0.08399996 -0.5390002 -0.1913334
v -0.08399996 -0.079 -0.1913334
v -0.08400001 -0.079 0.09866664
vn 1 -1.748456E-07 5.245366E-07
vn -1 1.748456E-07 -5.245366E-07
vn -1.748454E-07 -1 -3.496911E-07
vn 1.748454E-07 1 3.496911E-07
vn 5.245367E-07 3.49691E-07 -1
vn -5.245367E-07 -3.49691E-07 1
vn 1 0 0
vn -1 0 0
vn 0 -1 0
vn 0 1 0
vn 0 0 -1
vn 0 0 1
vn 1 -1.748456E-07 -3.057097E-14
vn -1 1.748456E-07 3.057097E-14
vn -1.748456E-07 -1 -1.748456E-07
vn 1.748456E-07 1 1.748456E-07
vn 0 1.748456E-07 -1
vn 0 -1.748456E-07 1
vn 1 0 0
vn -1 0 0
vn 0 -1 0
vn 0 1 0
vn 0 0 -1
vn 0 0 1
vn -1 0 -8.742278E-08
vn 1 0 8.742278E-08
vn 0 -1 0
vn 0 1 0
vn -8.742278E-08 0 1
vn 8.742278E-08 0 -1
vn -1 0 -8.742279E-08
vn 1 0 8.742279E-08
vn 8.742279E-08 1.192093E-07 -1
vn -8.742279E-08 -1.192093E-07 1
vn 0 -1 1.192093E-07
vn 0 1 -1.192093E-07
vn 1 0 0
vn -1 0 0
vn 0 -1 0
vn 0 1 0
vn 0 0 -1
vn 0 0 1
vn 1 0 0
vn -1 0 0
vn 0 -1 0
vn 0 1 0
vn 0 0 -1
vn 0 0 1
vn 1 0 1.748456E-07
vn -1 0 -1.748456E-07
vn 3.057097E-14 -1 -1.748456E-07
vn -3.057097E-14 1 1.748456E-07
vn 1.748456E-07 1.748456E-07 -1
vn -1.748456E-07 -1.748456E-07 1
vn -1.192093E-07 0 -1
vn 1.192093E-07 0 1
vn 0 -1 0
vn 0 1 0
vn -1 0 1.192093E-07
vn 1 0 -1.192093E-07
vn 1 0 0
vn -1 0 0
vn 0 -1 -1.748456E-07
vn 0 1 1.748456E-07
vn 0 1.748456E-07 -1
vn 0 -1.748456E-07 1
vn 1 0 1.748456E-07
vn -1 0 -1.748456E-07
vn -1.748456E-07 1.192093E-07 1
vn 1.748456E-07 -1.192093E-07 -1
vn 0 -1 1.192093E-07
vn 0 1 -1.192093E-07
vn 1 0 0
vn -1 0 0
vn 0 -1 0
vn 0 1 0
vn 0 0 -1
vn 0 0 1
vn 1 0 0
vn -1 0 0
vn 0 -1 -1.748456E-07
vn 0 1 1.748456E-07
vn 0 1.748456E-07 -1
vn 0 -1.748456E-07 1
vn 1 0 1.748456E-07
vn -1 0 -1.748456E-07
vn -1.748456E-07 1.192093E-07 1
vn 1.748456E-07 -1.192093E-07 -1
vn 0 -1 1.192093E-07
vn 0 1 -1.192093E-07
usemtl mat15
f 4//1 3//1 2//1 1//1
f 8//2 7//2 6//2 5//2
f 2//3 8//3 5//3 1//3
f 6//4 7//4 3//4 4//4
f 5//5 6//5 4//5 1//5
f 3//6 7//6 8//6 2//6
f 12//7 11//7 10//7 9//7
f 16//8 15//8 14//8 13//8
f 10//9 16//9 13//9 9//9
f 14//10 15//10 11//10 12//10
f 13//11 14//11 12//11 9//11
f 11//12 15//12 16//12 10//12
f 20//13 19//13 18//13 17//13
f 24//14 23//14 22//14 21//14
f 18//15 24//15 21//15 17//15
f 22//16 23//16 19//16 20//16
f 21//17 22//17 20//17 17//17
f 19//18 23//18 24//18 18//18
f 28//19 27//19 26//19 25//19
f 32//20 31//20 30//20 29//20
f 26//21 32//21 29//21 25//21
f 30//22 31//22 27//22 28//22
f 29//23 30//23 28//23 25//23
f 27//24 31//24 32//24 26//24
f 36//25 35//25 34//25 33//25
f 40//26 39//26 38//26 37//26
f 34//27 40//27 37//27 33//27
f 38//28 39//28 35//28 36//28
f 37//29 38//29 36//29 33//29
f 35//30 39//30 40//30 34//30
f 44//31 43//31 42//31 41//31
f 48//32 47//32 46//32 45//32
f 42//33 48//33 45//33 41//33
f 46//34 47//34 43//34 44//34
f 45//35 46//35 44//35 41//35
f 43//36 47//36 48//36 42//36
f 52//37 51//37 50//37 49//37
f 56//38 55//38 54//38 53//38
f 50//39 56//39 53//39 49//39
f 54//40 55//40 51//40 52//40
f 53//41 54//41 52//41 49//41
f 51//42 55//42 56//42 50//42
f 60//43 59//43 58//43 57//43
f 64//44 63//44 62//44 61//44
f 58//45 64//45 61//45 57//45
f 62//46 63//46 59//46 60//46
f 61//47 62//47 60//47 57//47
f 59//48 63//48 64//48 58//48
f 68//49 67//49 66//49 65//49
f 72//50 71//50 70//50 69//50
f 66//51 72//51 69//51 65//51
f 70//52 71//52 67//52 68//52
f 69//53 70//53 68//53 65//53
f 67//54 71//54 72//54 66//54
f 76//55 75//55 74//55 73//55
f 80//56 79//56 78//56 77//56
f 74//57 80//57 77//57 73//57
f 78//58 79//58 75//58 76//58
f 77//59 78//59 76//59 73//59
f 75//60 79//60 80//60 74//60
f 84//61 83//61 82//61 81//61
f 88//62 87//62 86//62 85//62
f 82//63 88//63 85//63 81//63
f 86//64 87//64 83//64 84//64
f 85//65 86//65 84//65 81//65
f 83//66 87//66 88//66 82//66
f 92//67 91//67 90//67 89//67
f 96//68 95//68 94//68 93//68
f 90//69 96//69 93//69 89//69
f 94//70 95//70 91//70 92//70
f 93//71 94//71 92//71 89//71
f 91//72 95//72 96//72 90//72
f 100//73 99//73 98//73 97//73
f 104//74 103//74 102//74 101//74
f 98//75 104//75 101//75 97//75
f 102//76 103//76 99//76 100//76
f 101//77 102//77 100//77 97//77
f 99//78 103//78 104//78 98//78
f 108//79 107//79 106//79 105//79
f 112//80 111//80 110//80 109//80
f 106//81 112//81 109//81 105//81
f 110//82 111//82 107//82 108//82
f 109//83 110//83 108//83 105//83
f 107//84 111//84 112//84 106//84
f 116//85 115//85 114//85 113//85
f 120//86 119//86 118//86 117//86
f 114//87 120//87 117//87 113//87
f 118//88 119//88 115//88 116//88
f 117//89 118//89 116//89 113//89
f 115//90 119//90 120//90 114//90
